<?xml version="1.0" encoding="UTF-8" standalone="no"?>
<svg
   xmlns:dc="http://purl.org/dc/elements/1.1/"
   xmlns:cc="http://creativecommons.org/ns#"
   xmlns:rdf="http://www.w3.org/1999/02/22-rdf-syntax-ns#"
   xmlns:svg="http://www.w3.org/2000/svg"
   xmlns="http://www.w3.org/2000/svg"
   xmlns:sodipodi="http://sodipodi.sourceforge.net/DTD/sodipodi-0.dtd"
   xmlns:inkscape="http://www.inkscape.org/namespaces/inkscape"
   width="200"
   height="200"
   viewBox="0 0 52.916666 52.916668"
   version="1.1"
   id="svg8"
   inkscape:export-filename="C:\Users\rhann\Desktop\Modules\Complete or Being Worked on\Number Cruncher Module\Assets\Symbols\Attendance.png"
   inkscape:export-xdpi="96"
   inkscape:export-ydpi="96"
   inkscape:version="1.0 (4035a4fb49, 2020-05-01)"
   sodipodi:docname="attendance.svg">
  <defs
     id="defs2" />
  <sodipodi:namedview
     inkscape:snap-smooth-nodes="true"
     inkscape:snap-midpoints="false"
     id="base"
     pagecolor="#ffffff"
     bordercolor="#666666"
     borderopacity="1.0"
     inkscape:pageopacity="0"
     inkscape:pageshadow="2"
     inkscape:zoom="2.8284271"
     inkscape:cx="63.415374"
     inkscape:cy="110.01356"
     inkscape:document-units="mm"
     inkscape:current-layer="layer1"
     inkscape:document-rotation="0"
     showgrid="true"
     units="px"
     inkscape:snap-page="true"
     inkscape:pagecheckerboard="true"
     inkscape:window-width="1920"
     inkscape:window-height="1027"
     inkscape:window-x="-8"
     inkscape:window-y="-8"
     inkscape:window-maximized="1"
     inkscape:snap-bbox="true"
     inkscape:bbox-nodes="true"
     inkscape:snap-bbox-edge-midpoints="false"
     inkscape:object-paths="false"
     inkscape:snap-grids="true"
     inkscape:snap-nodes="false">
    <inkscape:grid
       type="xygrid"
       id="grid902"
       empspacing="5"
       spacingx="2.6458333"
       spacingy="2.6458333" />
  </sodipodi:namedview>
  <metadata
     id="metadata5">
    <rdf:RDF>
      <cc:Work
         rdf:about="">
        <dc:format>image/svg+xml</dc:format>
        <dc:type
           rdf:resource="http://purl.org/dc/dcmitype/StillImage" />
        <dc:title></dc:title>
      </cc:Work>
    </rdf:RDF>
  </metadata>
  <g
     inkscape:label="Layer 1"
     inkscape:groupmode="layer"
     id="layer1">
    <g
       id="g940"
       style="fill:#ffffff;fill-opacity:1">
      <rect
         y="29.104166"
         x="5.2916665"
         height="18.520832"
         width="15.875001"
         id="rect927"
         style="font-variation-settings:normal;opacity:1;vector-effect:none;fill:#ffffff;fill-opacity:1;fill-rule:evenodd;stroke:none;stroke-width:0.529167;stroke-linecap:butt;stroke-linejoin:miter;stroke-miterlimit:4;stroke-dasharray:none;stroke-dashoffset:0;stroke-opacity:1;stop-color:#000000;stop-opacity:1" />
      <circle
         r="7.9375"
         cy="29.104166"
         cx="13.229166"
         id="path933"
         style="font-variation-settings:normal;opacity:1;vector-effect:none;fill:#ffffff;fill-opacity:1;fill-rule:evenodd;stroke-width:0.0529167;stroke-linecap:butt;stroke-linejoin:miter;stroke-miterlimit:4;stroke-dasharray:none;stroke-dashoffset:0;stroke-opacity:1;paint-order:markers fill stroke;stop-color:#000000;stop-opacity:1" />
      <circle
         style="font-variation-settings:normal;opacity:1;vector-effect:none;fill:#ffffff;fill-opacity:1;fill-rule:evenodd;stroke-width:0.0529167;stroke-linecap:butt;stroke-linejoin:miter;stroke-miterlimit:4;stroke-dasharray:none;stroke-dashoffset:0;stroke-opacity:1;paint-order:markers fill stroke;stop-color:#000000;stop-opacity:1"
         id="circle935"
         cx="13.229166"
         cy="13.229165"
         r="7.9375" />
    </g>
    <path
       transform="scale(0.26458333)"
       d="M 139.85547 20 A 30 30 0 0 0 110 50 A 30 30 0 0 0 140 80 A 30 30 0 0 0 170 50 A 30 30 0 0 0 140 20 A 30 30 0 0 0 139.85547 20 z M 140 80 A 30 30 0 0 0 113.33398 96.259766 L 140 122.92578 L 166.66797 96.259766 A 30 30 0 0 0 140 80 z M 166.66797 96.259766 A 30 30 0 0 1 169.86914 107.20312 L 180 97.072266 L 172.92773 90 L 166.66797 96.259766 z M 169.86914 107.20312 L 147.07422 130 L 170 152.92578 L 170 110 A 30 30 0 0 0 169.86914 107.20312 z M 170 152.92578 L 170 167.07031 L 172.92773 169.99805 L 180 162.92578 L 170 152.92578 z M 170 167.07031 L 140 137.07031 L 110 167.07227 L 110 180 L 170 180 L 170 167.07031 z M 110 167.07227 L 110 152.92773 L 100.00195 162.92578 L 107.07422 169.99805 L 110 167.07227 z M 110 152.92773 L 132.92969 130 L 110.13086 107.20117 A 30 30 0 0 0 110 110 A 30 30 0 0 0 110 110.14453 L 110 152.92773 z M 110.13086 107.20117 A 30 30 0 0 1 113.33398 96.259766 L 107.07422 90 L 100.00195 97.072266 L 110.13086 107.20117 z "
       style="font-variation-settings:normal;vector-effect:none;fill:#ffffff;fill-opacity:1;fill-rule:evenodd;stroke:none;stroke-width:2;stroke-linecap:butt;stroke-linejoin:miter;stroke-miterlimit:4;stroke-dasharray:none;stroke-dashoffset:0;stroke-opacity:1;stop-color:#000000"
       id="rect854" />
  </g>
</svg>
